<svg width="1024" height="1024" viewBox="0 0 1024 1024" fill="none" xmlns="http://www.w3.org/2000/svg">
<g clip-path="url(#clip0_375_172)">
<rect width="1024" height="1024" fill="black"/>
<path d="M132.222 769.681H188.833C188.833 785.196 194.494 797.567 205.816 806.792C217.138 815.598 232.444 820.001 251.734 820.001C272.701 820.001 288.846 816.018 300.168 808.05C311.49 799.663 317.151 788.551 317.151 774.713C317.151 764.648 314.006 756.262 307.716 749.552C301.845 742.843 290.942 737.391 275.007 733.198L220.913 720.618C193.655 713.908 173.317 703.634 159.899 689.796C146.899 675.958 140.399 657.717 140.399 635.072C140.399 616.202 145.222 599.848 154.866 586.01C164.931 572.171 178.559 561.478 195.752 553.93C213.364 546.382 233.493 542.608 256.137 542.608C278.782 542.608 298.281 546.592 314.635 554.559C331.409 562.526 344.408 573.639 353.634 587.897C363.279 602.154 368.311 619.137 368.73 638.846H312.119C311.7 622.911 306.458 610.541 296.394 601.735C286.33 592.929 272.282 588.526 254.25 588.526C235.799 588.526 221.542 592.509 211.477 600.477C201.413 608.444 196.381 619.347 196.381 633.185C196.381 653.733 211.477 667.781 241.67 675.329L295.765 688.538C321.764 694.409 341.263 704.054 354.263 717.473C367.262 730.472 373.762 748.294 373.762 770.939C373.762 790.228 368.52 807.211 358.037 821.888C347.553 836.146 333.086 847.258 314.635 855.226C296.603 862.774 275.217 866.548 250.476 866.548C214.413 866.548 185.688 857.742 164.302 840.13C142.915 822.517 132.222 799.034 132.222 769.681ZM429.356 866.548C417.195 866.548 406.502 862.355 397.276 853.968C388.47 845.162 384.067 834.678 384.067 822.517C384.067 809.937 388.47 799.454 397.276 791.067C406.502 782.261 417.195 777.858 429.356 777.858C441.517 777.858 452 782.261 460.806 791.067C469.612 799.454 474.016 809.937 474.016 822.517C474.016 834.678 469.612 845.162 460.806 853.968C452 862.355 441.517 866.548 429.356 866.548Z" fill="white"/>
</g>
<defs>
<clipPath id="clip0_375_172">
<rect width="1024" height="1024" fill="white"/>
</clipPath>
</defs>
</svg>
