<svg width="1024" height="1024" viewBox="0 0 1024 1024" fill="none" xmlns="http://www.w3.org/2000/svg">
<g clip-path="url(#clip0_375_166)">
<rect width="1024" height="1024" fill="white"/>
<path d="M134.222 769.681H190.833C190.833 785.196 196.494 797.567 207.816 806.792C219.138 815.598 234.444 820.001 253.734 820.001C274.701 820.001 290.846 816.018 302.168 808.05C313.49 799.663 319.151 788.551 319.151 774.713C319.151 764.648 316.006 756.262 309.716 749.552C303.845 742.843 292.942 737.391 277.007 733.198L222.913 720.618C195.655 713.908 175.317 703.634 161.899 689.796C148.899 675.958 142.399 657.717 142.399 635.072C142.399 616.202 147.222 599.848 156.866 586.01C166.931 572.171 180.559 561.478 197.752 553.93C215.364 546.382 235.493 542.608 258.137 542.608C280.782 542.608 300.281 546.592 316.635 554.559C333.409 562.526 346.408 573.639 355.634 587.897C365.279 602.154 370.311 619.137 370.73 638.846H314.119C313.7 622.911 308.458 610.541 298.394 601.735C288.33 592.929 274.282 588.526 256.25 588.526C237.799 588.526 223.542 592.509 213.477 600.477C203.413 608.444 198.381 619.347 198.381 633.185C198.381 653.733 213.477 667.781 243.67 675.329L297.765 688.538C323.764 694.409 343.263 704.054 356.263 717.473C369.262 730.472 375.762 748.294 375.762 770.939C375.762 790.228 370.52 807.211 360.037 821.888C349.553 836.146 335.086 847.258 316.635 855.226C298.603 862.774 277.217 866.548 252.476 866.548C216.413 866.548 187.688 857.742 166.302 840.13C144.915 822.517 134.222 799.034 134.222 769.681ZM431.356 866.548C419.195 866.548 408.502 862.355 399.276 853.968C390.47 845.162 386.067 834.678 386.067 822.517C386.067 809.937 390.47 799.454 399.276 791.067C408.502 782.261 419.195 777.858 431.356 777.858C443.517 777.858 454 782.261 462.806 791.067C471.612 799.454 476.016 809.937 476.016 822.517C476.016 834.678 471.612 845.162 462.806 853.968C454 862.355 443.517 866.548 431.356 866.548Z" fill="black"/>
<path d="M134.222 769.681H190.833C190.833 785.196 196.494 797.567 207.816 806.792C219.138 815.598 234.444 820.001 253.734 820.001C274.701 820.001 290.846 816.018 302.168 808.05C313.49 799.663 319.151 788.551 319.151 774.713C319.151 764.648 316.006 756.262 309.716 749.552C303.845 742.843 292.942 737.391 277.007 733.198L222.913 720.618C195.655 713.908 175.317 703.634 161.899 689.796C148.899 675.958 142.399 657.717 142.399 635.072C142.399 616.202 147.222 599.848 156.866 586.01C166.931 572.171 180.559 561.478 197.752 553.93C215.364 546.382 235.493 542.608 258.137 542.608C280.782 542.608 300.281 546.592 316.635 554.559C333.409 562.526 346.408 573.639 355.634 587.897C365.279 602.154 370.311 619.137 370.73 638.846H314.119C313.7 622.911 308.458 610.541 298.394 601.735C288.33 592.929 274.282 588.526 256.25 588.526C237.799 588.526 223.542 592.509 213.477 600.477C203.413 608.444 198.381 619.347 198.381 633.185C198.381 653.733 213.477 667.781 243.67 675.329L297.765 688.538C323.764 694.409 343.263 704.054 356.263 717.473C369.262 730.472 375.762 748.294 375.762 770.939C375.762 790.228 370.52 807.211 360.037 821.888C349.553 836.146 335.086 847.258 316.635 855.226C298.603 862.774 277.217 866.548 252.476 866.548C216.413 866.548 187.688 857.742 166.302 840.13C144.915 822.517 134.222 799.034 134.222 769.681ZM431.356 866.548C419.195 866.548 408.502 862.355 399.276 853.968C390.47 845.162 386.067 834.678 386.067 822.517C386.067 809.937 390.47 799.454 399.276 791.067C408.502 782.261 419.195 777.858 431.356 777.858C443.517 777.858 454 782.261 462.806 791.067C471.612 799.454 476.016 809.937 476.016 822.517C476.016 834.678 471.612 845.162 462.806 853.968C454 862.355 443.517 866.548 431.356 866.548Z" fill="black"/>
</g>
<defs>
<clipPath id="clip0_375_166">
<rect width="1024" height="1024" fill="white"/>
</clipPath>
</defs>
</svg>
